#!OML:ASF F:\VICON\USERDATA\INSTALL\rory3\rory3.ASF
:FULLY-SPECIFIED
:DEGREES
4279
root 0.679302 17.9164 3.16715 -181.375 191.406 -179.339
lowerback 4.34167 0.103388 -5.51001
upperback 0.74564 -0.0805433 2.06278
thorax -1.65588 -0.00708441 5.24365
lowerneck -25.4432 -3.64252 -10.0601
upperneck 18.7146 -2.16444 3.61706
head 10.3274 -1.28763 2.58342
rclavicle 1.81391e-014 -4.37326e-015
rhumerus -52.3306 -37.7429 -50.8727
rradius 28.7296
rwrist 14.0948
rhand -24.1899 -6.23031
rfingers 7.12502
rthumb 2.29394 -36.1977
lclavicle 1.81391e-014 -4.37326e-015
lhumerus -37.6879 12.3853 70.2702
lradius 35.1959
lwrist -5.6332
lhand -8.91575 30.2159
lfingers 7.12502
lthumb 17.0275 1139.49
rfemur -12.2646 -4.72264 9.18939
rtibia 55.3481
rfoot -5.00125 -10.3459
rtoes -0.786734
lfemur -6.4373 -6.5479 -20.3348
ltibia 19.1661
lfoot -8.02985 -12.0046
ltoes -8.46997
4280
root 0.658197 17.9115 3.1698 -181.355 191.074 -179.271
lowerback 4.34558 0.0699793 -5.55478
upperback 0.730312 -0.127641 2.0579
thorax -1.66763 -0.0296163 5.26681
lowerneck -25.4422 -3.66377 -10.023
upperneck 18.7377 -2.21873 3.66045
head 10.3394 -1.30477 2.58476
rclavicle 1.12189e-014 -6.36111e-015
rhumerus -52.953 -37.9545 -50.5745
rradius 28.2886
rwrist 13.7799
rhand -24.1917 -6.73379
rfingers 7.12502
rthumb 2.29217 -36.7012
lclavicle 1.12189e-014 -6.36111e-015
lhumerus -37.7686 12.5779 70.1028
lradius 35.1329
lwrist -5.48545
lhand -9.38463 30.1751
lfingers 7.12502
lthumb 16.5762 1139.49
rfemur -12.2327 -4.22278 9.1331
rtibia 54.6734
rfoot -4.64774 -9.87419
rtoes -1.44239
lfemur -6.60844 -6.67284 -20.3545
ltibia 19.3966
lfoot -7.95463 -12.1723
ltoes -8.14154
4281
root 0.63658 17.9065 3.16925 -181.395 190.796 -179.289
lowerback 4.45837 0.0171427 -5.55311
upperback 0.673582 -0.203463 2.12663
thorax -1.77932 -0.0622866 5.34343
lowerneck -25.3089 -3.59828 -10.1318
upperneck 18.872 -2.1319 3.77021
head 10.3612 -1.26355 2.65847
rclavicle 2.11333e-014 9.54166e-015
rhumerus -53.519 -38.0402 -50.1694
rradius 27.7793
rwrist 13.6888
rhand -24.1722 -6.89449
rfingers 7.12502
rthumb 2.31108 -36.8617
lclavicle 2.11333e-014 9.54166e-015
lhumerus -37.984 12.9396 69.8941
lradius 35.0645
lwrist -5.64496
lhand -9.87447 29.8804
lfingers 7.12502
lthumb 16.1045 1139.23
rfemur -12.1146 -3.68866 9.18243
rtibia 53.9655
rfoot -4.12876 -9.47522
rtoes -1.32181
lfemur -6.72862 -6.97988 -20.2805
ltibia 19.666
lfoot -7.92489 -12.0693
ltoes -7.75262
4282
root 0.610672 17.8993 3.16937 -181.421 190.494 -179.349
lowerback 4.51826 -0.0701891 -5.5631
upperback 0.630958 -0.322198 2.22753
thorax -1.84054 -0.118251 5.46287
lowerneck -25.2097 -3.51758 -10.2392
upperneck 18.9991 -2.02893 3.91281
head 10.3851 -1.21035 2.7465
rclavicle -3.15571e-015 -2.18663e-014
rhumerus -53.964 -38.1044 -49.8444
rradius 27.3108
rwrist 13.7925
rhand -24.2926 -7.12085
rfingers 7.12502
rthumb 2.19473 -37.0893
lclavicle -3.15571e-015 -2.18663e-014
lhumerus -38.1391 13.2931 69.7294
lradius 34.7982
lwrist -5.58043
lhand -9.80301 30.238
lfingers 7.12502
lthumb 16.1733 1139.58
rfemur -11.9497 -3.14161 9.29512
rtibia 53.2635
rfoot -3.93148 -8.92529
rtoes -0.249213
lfemur -6.86765 -7.26639 -20.1425
ltibia 19.9735
lfoot -8.00679 -12.096
ltoes -7.35734
4283
root 0.58193 17.891 3.16958 -181.475 190.151 -179.296
lowerback 4.47575 -0.119825 -5.59458
upperback 0.700318 -0.387273 2.20701
thorax -1.73591 -0.155982 5.46212
lowerneck -25.1756 -3.52637 -10.2326
upperneck 18.8862 -2.08244 4.05722
head 10.3429 -1.21369 2.78821
rclavicle -1.52816e-014 2.0276e-014
rhumerus -54.3882 -38.4728 -49.5798
rradius 26.9273
rwrist 14.0516
rhand -24.3584 -7.50804
rfingers 7.12502
rthumb 2.13123 -37.4771
lclavicle -1.52816e-014 2.0276e-014
lhumerus -38.0772 13.52 69.565
lradius 34.5649
lwrist -5.52263
lhand -9.67581 30.7281
lfingers 7.12502
lthumb 16.2958 1140.06
rfemur -11.7705 -2.59918 9.31603
rtibia 52.5933
rfoot -3.95599 -8.21983
rtoes -0.950132
lfemur -6.99483 -7.52017 -20.1317
ltibia 20.3151
lfoot -8.22361 -12.135
ltoes -7.63747
4284
root 0.553977 17.8836 3.16481 -181.495 189.846 -179.338
lowerback 4.51241 -0.176171 -5.51348
upperback 0.702876 -0.46043 2.20598
thorax -1.74454 -0.192866 5.41932
lowerneck -24.9681 -3.4585 -10.0331
upperneck 18.6393 -2.05819 3.95084
head 10.2108 -1.1971 2.71843
rclavicle -1.00635e-014 -1.90833e-014
rhumerus -54.6868 -38.4664 -49.6291
rradius 26.6816
rwrist 14.0055
rhand -24.5108 -7.78138
rfingers 7.12502
rthumb 1.98406 -37.7519
lclavicle -1.00635e-014 -1.90833e-014
lhumerus -38.1902 14.2554 69.1412
lradius 34.4255
lwrist -5.96493
lhand -9.5165 30.6013
lfingers 7.12502
lthumb 16.4492 1139.92
rfemur -11.6291 -2.07521 9.45335
rtibia 51.9803
rfoot -4.21384 -7.58592
rtoes -3.86048
lfemur -7.15637 -7.79281 -20.0074
ltibia 20.6545
lfoot -8.44266 -12.1003
ltoes -7.85941
4285
root 0.528548 17.8756 3.15816 -181.502 189.58 -179.417
lowerback 4.65754 -0.207347 -5.43195
upperback 0.643454 -0.505134 2.25393
thorax -1.88174 -0.209592 5.42805
lowerneck -24.8748 -3.41545 -9.89443
upperneck 18.6116 -2.03415 3.84417
head 10.1797 -1.18926 2.66105
rclavicle -3.8763e-015 -6.75868e-015
rhumerus -54.8771 -38.1717 -49.8501
rradius 26.5773
rwrist 13.6262
rhand -24.7276 -8.00731
rfingers 7.12502
rthumb 1.77468 -37.9797
lclavicle -3.8763e-015 -6.75868e-015
lhumerus -38.2427 15.1174 68.7223
lradius 34.0843
lwrist -6.32382
lhand -9.35242 30.4463
lfingers 7.12502
lthumb 16.6072 1139.76
rfemur -11.4899 -1.6233 9.62281
rtibia 51.4582
rfoot -4.50954 -7.13114
rtoes -7.68822
lfemur -7.33859 -8.11335 -19.8427
ltibia 20.9768
lfoot -8.58024 -11.9343
ltoes -7.91891
4286
root 0.501319 17.8709 3.15363 -181.535 189.297 -179.497
lowerback 4.76788 -0.220337 -5.34724
upperback 0.634213 -0.522971 2.29024
thorax -1.95122 -0.216521 5.42043
lowerneck -24.9018 -3.43935 -9.859
upperneck 18.6453 -2.07796 3.84671
head 10.1994 -1.20696 2.64963
rclavicle 1.55301e-015 1.55052e-014
rhumerus -55.1892 -38.1278 -49.8135
rradius 26.4988
rwrist 13.493
rhand -24.7469 -7.83466
rfingers 7.12502
rthumb 1.75601 -37.8072
lclavicle 1.55301e-015 1.55052e-014
lhumerus -38.1826 15.6586 68.4989
lradius 33.7991
lwrist -6.33666
lhand -9.40004 30.8155
lfingers 7.12502
lthumb 16.5613 1140.13
rfemur -11.3078 -1.25748 9.78979
rtibia 51.0666
rfoot -4.70752 -6.74921
rtoes -8.14474
lfemur -7.46597 -8.31495 -19.678
ltibia 21.2649
lfoot -8.69082 -11.8326
ltoes -7.56463
4287
root 0.474308 17.8684 3.1466 -181.504 188.958 -179.603
lowerback 4.83281 -0.259932 -5.1796
upperback 0.596952 -0.570469 2.29119
thorax -2.02154 -0.238326 5.32989
lowerneck -24.8574 -3.45975 -9.84221
upperneck 18.6257 -2.14426 3.95711
head 10.1902 -1.2223 2.67634
rclavicle 3.67752e-015 -1.07344e-014
rhumerus -55.5638 -38.0663 -49.8625
rradius 26.586
rwrist 13.4455
rhand -24.5912 -7.73563
rfingers 7.12502
rthumb 1.9064 -37.7069
lclavicle 3.67752e-015 -1.07344e-014
lhumerus -38.1794 15.95 68.3162
lradius 33.6578
lwrist -6.22472
lhand -9.45141 31.457
lfingers 7.12502
lthumb 16.5119 1140.77
rfemur -11.1997 -1.0099 9.99168
rtibia 50.8497
rfoot -4.93696 -6.47015
rtoes -6.42207
lfemur -7.65052 -8.44365 -19.4674
ltibia 21.4576
lfoot -8.64116 -11.8849
ltoes -6.38893
4288
root 0.447169 17.8696 3.1387 -181.476 188.62 -179.668
lowerback 4.82546 -0.332854 -5.05869
upperback 0.601801 -0.660914 2.29481
thorax -2.00191 -0.285228 5.27016
lowerneck -24.8459 -3.4744 -9.85951
upperneck 18.625 -2.18532 4.06258
head 10.1922 -1.22935 2.71094
rclavicle -2.85877e-014 -6.75868e-015
rhumerus -55.6544 -37.968 -50.1468
rradius 26.721
rwrist 13.4039
rhand -24.5918 -7.95161
rfingers 7.12502
rthumb 1.90578 -37.9228
lclavicle -2.85877e-014 -6.75868e-015
lhumerus -38.152 16.3536 68.1222
lradius 33.4494
lwrist -6.27404
lhand -9.42959 31.5225
lfingers 7.12502
lthumb 16.5329 1140.84
rfemur -11.0838 -0.806756 10.1672
rtibia 50.8113
rfoot -4.93946 -6.34846
rtoes -6.47144
lfemur -7.78828 -8.63552 -19.2983
ltibia 21.5714
lfoot -8.66575 -11.9722
ltoes -6.06767
4289
root 0.41788 17.8719 3.13019 -181.509 188.333 -179.7
lowerback 4.8108 -0.399219 -5.03643
upperback 0.649568 -0.746585 2.32593
thorax -1.93307 -0.331514 5.29462
lowerneck -24.7197 -3.4658 -9.90638
upperneck 18.4668 -2.18825 4.14234
head 10.1144 -1.22197 2.74526
rclavicle 1.83627e-014 -5.1684e-015
rhumerus -55.535 -37.8256 -50.5048
rradius 26.76
rwrist 13.3272
rhand -24.6156 -7.68813
rfingers 7.12502
rthumb 1.88285 -37.6596
lclavicle 1.83627e-014 -5.1684e-015
lhumerus -38.1748 16.8706 67.9499
lradius 33.2635
lwrist -6.33443
lhand -9.65586 31.1129
lfingers 7.12502
lthumb 16.315 1140.45
rfemur -10.8966 -0.61355 10.3129
rtibia 50.8908
rfoot -4.89222 -6.229
rtoes -8.18191
lfemur -7.81743 -8.83715 -19.1704
ltibia 21.6355
lfoot -8.73507 -12.0356
ltoes -6.51485
